<svg width="59" height="19" viewBox="0 0 59 19" fill="none" xmlns="http://www.w3.org/2000/svg">
<g clip-path="url(#clip0_722_7195)">
<path d="M25.5666 17.984H20.7872L23.7766 0.55957H28.5558L25.5666 17.984Z" fill="#00579F"/>
<path d="M42.8924 0.984993C41.9496 0.632434 40.4544 0.243164 38.6056 0.243164C33.8858 0.243164 30.5621 2.61574 30.5417 6.0078C30.5025 8.51046 32.9214 9.90049 34.7305 10.735C36.5796 11.5877 37.2081 12.1442 37.2081 12.9043C37.1893 14.0716 35.714 14.6097 34.3379 14.6097C32.4298 14.6097 31.4073 14.3322 29.8536 13.6828L29.2242 13.4044L28.5554 17.3158C29.6764 17.7972 31.7416 18.2244 33.8858 18.2432C38.9007 18.2432 42.1655 15.9073 42.2042 12.2925C42.2233 10.309 40.946 8.7891 38.1924 7.54714C36.5208 6.74987 35.497 6.21229 35.497 5.39655C35.5166 4.65496 36.3629 3.8954 38.2499 3.8954C39.8037 3.85819 40.9453 4.21026 41.8101 4.56257L42.2424 4.7476L42.8924 0.984993Z" fill="#00579F"/>
<path d="M49.2446 11.8112C49.6382 10.8102 51.1528 6.93595 51.1528 6.93595C51.1329 6.97315 51.5456 5.91646 51.7816 5.26776L52.1156 6.76915C52.1156 6.76915 53.0207 10.94 53.2172 11.8112C52.4703 11.8112 50.1887 11.8112 49.2446 11.8112ZM55.1442 0.55957H51.4473C50.3073 0.55957 49.4412 0.874435 48.9493 2.00529L41.8501 17.9838H46.865C46.865 17.9838 47.6906 15.8332 47.8681 15.37C48.4182 15.37 53.2967 15.37 54.0044 15.37C54.1417 15.9818 54.5747 17.9838 54.5747 17.9838H59L55.1442 0.55957Z" fill="#00579F"/>
<path d="M16.7952 0.55957L12.1146 12.4414L11.6031 10.0316C10.7377 7.25106 8.02383 4.23003 4.99524 2.7279L9.28252 17.9656H14.3366L21.849 0.55957H16.7952Z" fill="#00579F"/>
<path d="M7.76828 0.55957H0.0786678L0 0.911637C5.99838 2.3576 9.97098 5.84304 11.6032 10.0324L9.93152 2.02426C9.65631 0.911391 8.81056 0.59628 7.76828 0.55957Z" fill="#FAA61A"/>
</g>
<defs>
<clipPath id="clip0_722_7195">
<rect width="59" height="18" fill="white" transform="translate(0 0.243164)"/>
</clipPath>
</defs>
</svg>
