<svg width="26" height="19" viewBox="0 0 26 19" fill="none" xmlns="http://www.w3.org/2000/svg">
<path d="M15.6797 4.52637H10.3059V13.9607H15.6797V4.52637Z" fill="#FF5F00"/>
<path d="M10.6472 9.24315C10.6463 8.33456 10.8571 7.43767 11.2635 6.62041C11.6699 5.80315 12.2612 5.08693 12.9928 4.52596C12.0869 3.83024 10.9988 3.39758 9.853 3.27743C8.70722 3.15729 7.54995 3.3545 6.51347 3.84654C5.47699 4.33858 4.60312 5.1056 3.99174 6.05991C3.38037 7.01422 3.05615 8.11733 3.05615 9.24315C3.05615 10.369 3.38037 11.4721 3.99174 12.4264C4.60312 13.3807 5.47699 14.1477 6.51347 14.6398C7.54995 15.1318 8.70722 15.329 9.853 15.2089C10.9988 15.0887 12.0869 14.6561 12.9928 13.9603C12.2612 13.3994 11.6699 12.6832 11.2635 11.8659C10.8571 11.0486 10.6463 10.1518 10.6472 9.24315Z" fill="#EB001B"/>
<path d="M22.9292 9.24315C22.9292 10.369 22.6051 11.4721 21.9937 12.4264C21.3824 13.3807 20.5085 14.1477 19.4721 14.6397C18.4356 15.1318 17.2784 15.329 16.1326 15.2089C14.9868 15.0887 13.8988 14.6561 12.9928 13.9603C13.7238 13.3988 14.3147 12.6825 14.721 11.8653C15.1273 11.0482 15.3385 10.1516 15.3385 9.24315C15.3385 8.3347 15.1273 7.4381 14.721 6.62096C14.3147 5.80383 13.7238 5.08749 12.9928 4.52596C13.8988 3.83024 14.9868 3.39757 16.1326 3.27743C17.2784 3.15729 18.4356 3.35451 19.4721 3.84656C20.5085 4.3386 21.3824 5.10562 21.9937 6.05993C22.6051 7.01424 22.9292 8.11735 22.9292 9.24315Z" fill="#F79E1B"/>
<path d="M22.3433 12.9614V12.7682H22.423V12.7289H22.22V12.7682H22.2997V12.9614H22.3433ZM22.7374 12.9614V12.7285H22.6752L22.6036 12.8887L22.532 12.7285H22.4698V12.9614H22.5137V12.7857L22.5808 12.9372H22.6264L22.6935 12.7853V12.9614H22.7374Z" fill="#F79E1B"/>
</svg>
