<svg width="32" height="32" viewBox="0 0 32 32" fill="none" xmlns="http://www.w3.org/2000/svg">
<path fill-rule="evenodd" clip-rule="evenodd" d="M15.6293 3.00017C17.1933 2.98667 18.4024 3.76277 19.2362 4.8018C20.0808 5.85422 20.5 7.12892 20.5 8.0002C20.5 9.73367 19.5321 11.0121 18.3079 12.4404C18.2118 12.5525 18.1141 12.6655 18.0154 12.7796L18.0152 12.78C17.2807 13.6297 16.4907 14.5436 15.8935 15.6218C15.7901 15.8086 15.5071 15.8053 15.4078 15.6163C14.8237 14.5057 14.0279 13.5627 13.2896 12.6879L13.2891 12.6873C13.2103 12.5939 13.1321 12.5013 13.0549 12.4093C11.8416 10.9636 10.8751 9.687 10.875 8.00017C10.8749 7.18932 11.273 5.92692 12.0946 4.8641C12.9057 3.8149 14.086 3.0135 15.6293 3.00017ZM15.625 10.125C16.8677 10.125 17.875 9.11765 17.875 7.875C17.875 6.63235 16.8677 5.625 15.625 5.625C14.3823 5.625 13.375 6.63235 13.375 7.875C13.375 9.11765 14.3823 10.125 15.625 10.125ZM15.625 9.125C16.3153 9.125 16.875 8.56535 16.875 7.875C16.875 7.18465 16.3153 6.625 15.625 6.625C14.9347 6.625 14.375 7.18465 14.375 7.875C14.375 8.56535 14.9347 9.125 15.625 9.125ZM13.0497 14.2292C13.1501 14.1926 13.2629 14.2239 13.3294 14.3076C14.1497 15.3416 14.8478 16.4121 15.1365 17.7319C15.1862 17.9588 15.3854 18.1216 15.6176 18.125C15.8498 18.1285 16.0538 17.9716 16.1101 17.7463C16.4381 16.4343 17.1547 15.3802 17.985 14.3637C18.0525 14.2811 18.1652 14.2513 18.265 14.2888L19.0685 14.5908L24.742 16.8025C24.9503 16.8836 24.9555 17.1763 24.7502 17.2649L15.7226 21.1632C15.6596 21.1904 15.5883 21.1905 15.5253 21.1636L6.3859 17.2614C6.17992 17.1735 6.1846 16.8799 6.39327 16.7986L12.0567 14.5908L13.0497 14.2292ZM26.125 18.1409C26.125 17.9611 25.941 17.8401 25.776 17.9113L16.2759 22.0136C16.1843 22.0532 16.125 22.1434 16.125 22.2431V28.4722C16.125 28.6532 16.311 28.7742 16.4763 28.701L25.9762 24.4907C26.0667 24.4506 26.125 24.361 26.125 24.2621V18.1409ZM14.9732 22.0154C15.0653 22.0547 15.125 22.1452 15.125 22.2453V28.4775C15.125 28.658 14.9398 28.779 14.7746 28.7065L5.14965 24.4888C5.05873 24.449 5 24.3591 5 24.2599V18.1358C5 17.9565 5.18325 17.8354 5.34818 17.9059L14.9732 22.0154ZM23.875 22.5C23.5989 22.5 23.375 22.7238 23.375 23C23.375 23.2761 23.5989 23.5 23.875 23.5H24.75C25.0263 23.5 25.25 23.2761 25.25 23C25.25 22.7238 25.0263 22.5 24.75 22.5H23.875ZM22.125 23.25C21.8489 23.25 21.625 23.4738 21.625 23.75C21.625 24.0261 21.8489 24.25 22.125 24.25H23C23.2761 24.25 23.5 24.0261 23.5 23.75C23.5 23.4738 23.2761 23.25 23 23.25H22.125Z" fill="#FFC400"/>
</svg>
