<svg width="41" height="41" viewBox="0 0 41 41" fill="none" xmlns="http://www.w3.org/2000/svg">
<rect x="0.666992" y="0.5" width="40" height="40" rx="20" fill="#25D366"/>
<path d="M20.67 8.5H20.664C14.0475 8.5 8.66699 13.882 8.66699 20.5C8.66699 23.125 9.51299 25.558 10.9515 27.5335L9.45599 31.9915L14.0685 30.517C15.966 31.774 18.2295 32.5 20.67 32.5C27.2865 32.5 32.667 27.1165 32.667 20.5C32.667 13.8835 27.2865 8.5 20.67 8.5ZM27.6525 25.4455C27.363 26.263 26.214 26.941 25.2975 27.139C24.6705 27.2725 23.8515 27.379 21.0945 26.236C17.568 24.775 15.297 21.1915 15.12 20.959C14.9505 20.7265 13.695 19.0615 13.695 17.3395C13.695 15.6175 14.5695 14.779 14.922 14.419C15.2115 14.1235 15.69 13.9885 16.149 13.9885C16.2975 13.9885 16.431 13.996 16.551 14.002C16.9035 14.017 17.0805 14.038 17.313 14.5945C17.6025 15.292 18.3075 17.014 18.3915 17.191C18.477 17.368 18.5625 17.608 18.4425 17.8405C18.33 18.0805 18.231 18.187 18.054 18.391C17.877 18.595 17.709 18.751 17.532 18.97C17.37 19.1605 17.187 19.3645 17.391 19.717C17.595 20.062 18.3 21.2125 19.338 22.1365C20.6775 23.329 21.7635 23.71 22.152 23.872C22.4415 23.992 22.7865 23.9635 22.998 23.7385C23.2665 23.449 23.598 22.969 23.9355 22.4965C24.1755 22.1575 24.4785 22.1155 24.7965 22.2355C25.1205 22.348 26.835 23.1955 27.1875 23.371C27.54 23.548 27.7725 23.632 27.858 23.7805C27.942 23.929 27.942 24.6265 27.6525 25.4455Z" fill="#FEFEFE"/>
</svg>
