<svg width="38" height="19" viewBox="0 0 38 19" fill="none" xmlns="http://www.w3.org/2000/svg">
<g clip-path="url(#clip0_722_7210)">
<path d="M32.8588 5.38116V9.78186H31.1931V6.69486H29.5893V9.78186H27.9237V5.38086H32.8588V5.38116Z" fill="white"/>
<path fill-rule="evenodd" clip-rule="evenodd" d="M24.503 9.93929C25.9941 9.93929 27.1013 9.07679 27.1013 7.76924C27.1013 6.50369 26.2844 5.68199 24.9191 5.68199C24.289 5.68199 23.7691 5.89124 23.3775 6.25229C23.471 5.50604 24.1399 4.96124 24.8763 4.96124C25.0463 4.96124 26.3259 4.95869 26.3259 4.95869L27.0495 3.65234C27.0495 3.65234 25.443 3.68684 24.6962 3.68684C22.9898 3.71489 21.8373 5.17814 21.8373 6.95534C21.8373 9.02579 22.9614 9.93929 24.503 9.93929ZM24.5121 6.83909C25.0657 6.83909 25.4495 7.18229 25.4495 7.76909C25.4495 8.29724 25.1085 8.73239 24.5121 8.73359C23.9416 8.73359 23.5578 8.33039 23.5578 7.77809C23.5578 7.19114 23.9416 6.83909 24.5121 6.83909Z" fill="white"/>
<path d="M20.4814 8.30861C20.4814 8.30861 20.0881 8.52251 19.5006 8.56301C18.8252 8.58191 18.2234 8.17946 18.2234 7.46441C18.2234 6.76691 18.7544 6.36715 19.4836 6.36715C19.9307 6.36715 20.5221 6.6595 20.5221 6.6595C20.5221 6.6595 20.9549 5.91025 21.1791 5.53555C20.7686 5.242 20.2218 5.08105 19.5858 5.08105C17.9807 5.08105 16.7375 6.06835 16.7375 7.45555C16.7375 8.86046 17.906 9.82481 19.5858 9.79571C20.0553 9.77921 20.7031 9.62366 21.0979 9.38441L20.4814 8.30861Z" fill="white"/>
<path d="M0 4.16113L2.31053 8.05738V10.434L0.00270293 14.3226L0 4.16113Z" fill="#5B57A2"/>
<path d="M8.87146 6.63959L11.0365 5.38769L15.4674 5.38379L8.87146 9.19589V6.63959Z" fill="#D90751"/>
<path d="M8.85923 4.13821L8.87148 9.29671L6.55554 7.95422V0.243164L8.85923 4.13821Z" fill="#FAB718"/>
<path d="M15.4674 5.38381L11.0364 5.38771L8.85923 4.13821L6.55554 0.243164L15.4674 5.38381Z" fill="#ED6F26"/>
<path d="M8.87148 14.3442V11.8414L6.55554 10.5244L6.55681 18.2431L8.87148 14.3442Z" fill="#63B22F"/>
<path d="M11.0311 13.1037L2.31037 8.05738L0 4.16113L15.4581 13.0986L11.0311 13.1037Z" fill="#1487C9"/>
<path d="M6.55701 18.2432L8.87135 14.3442L11.031 13.1037L15.4579 13.0986L6.55701 18.2432Z" fill="#017F36"/>
<path d="M0.00268555 14.323L6.57446 10.525L4.36505 9.24609L2.31051 10.4344L0.00268555 14.323Z" fill="#984995"/>
<path d="M18.2239 12.7433C18.173 12.8045 18.1061 12.8507 18.0258 12.8819C17.9434 12.9136 17.8552 12.9297 17.7663 12.9293C17.6778 12.9305 17.5899 12.9165 17.5067 12.8882C17.4319 12.8626 17.3636 12.8227 17.306 12.7709C17.2492 12.7191 17.2045 12.6565 17.175 12.5873C17.143 12.5115 17.1271 12.4305 17.1281 12.349C17.1281 12.268 17.1429 12.193 17.1736 12.1219C17.203 12.0506 17.2458 11.9896 17.2993 11.9383C17.3529 11.8859 17.4171 11.846 17.4893 11.8148C17.5629 11.7848 17.6432 11.7686 17.7315 11.7686C17.8266 11.7686 17.9148 11.7799 17.9951 11.8022C18.0754 11.8247 18.1436 11.8622 18.1997 11.9147L18.1021 12.0707C18.0549 12.0304 17.9993 11.9997 17.9388 11.9807C17.8813 11.9633 17.8213 11.9544 17.7609 11.9546C17.7075 11.9546 17.6566 11.9645 17.6071 11.9833C17.5584 12.0018 17.5139 12.0289 17.476 12.0632C17.4372 12.0985 17.4067 12.141 17.3863 12.188C17.3636 12.2366 17.3529 12.2903 17.3529 12.3502C17.3529 12.4114 17.3648 12.4663 17.3876 12.5137C17.4105 12.5624 17.4412 12.6037 17.48 12.6385C17.5187 12.6736 17.5642 12.6997 17.6164 12.7172C17.6687 12.736 17.7235 12.7447 17.7824 12.7447C17.8545 12.7447 17.9202 12.7309 17.9763 12.7046C18.032 12.6793 18.0819 12.6442 18.1236 12.6011L18.2239 12.7433ZM18.4994 12.9031V11.7923H18.7109V12.6199L19.3986 11.7923H19.61V12.9032H19.3986V12.0757L18.7109 12.9032L18.4994 12.9031ZM21.0108 12.7433C20.9588 12.805 20.8905 12.8528 20.8128 12.8819C20.7304 12.9135 20.6422 12.9296 20.5532 12.9293C20.4648 12.9304 20.3769 12.9165 20.2937 12.8882C20.2189 12.8626 20.1505 12.8227 20.0929 12.7709C20.036 12.7191 19.9914 12.6565 19.9619 12.5873C19.9299 12.5115 19.914 12.4305 19.915 12.349C19.915 12.268 19.9298 12.193 19.9604 12.1219C19.99 12.0506 20.0328 11.9896 20.0862 11.9383C20.1398 11.8859 20.204 11.846 20.2762 11.8148C20.3525 11.7831 20.4351 11.7674 20.5184 11.7686C20.6134 11.7686 20.7017 11.7799 20.782 11.8022C20.8623 11.8247 20.9305 11.8622 20.9868 11.9147L20.889 12.0707C20.8418 12.0303 20.7863 11.9997 20.7259 11.9807C20.6684 11.9633 20.6083 11.9545 20.5479 11.9546C20.4417 11.9549 20.3396 11.9938 20.2629 12.0632C20.2244 12.0988 20.1939 12.1412 20.1732 12.188C20.1504 12.2366 20.1398 12.2903 20.1398 12.3502C20.1398 12.4114 20.1519 12.4663 20.1746 12.5137C20.1973 12.5624 20.228 12.6037 20.2668 12.6385C20.3056 12.6736 20.3513 12.6997 20.4034 12.7172C20.4556 12.7346 20.5104 12.7447 20.5692 12.7447C20.6416 12.7447 20.7058 12.7309 20.7632 12.7046C20.8188 12.6793 20.8688 12.6442 20.9104 12.6011L21.0108 12.7433ZM21.1192 11.7923H22.2042V11.9896H21.7681V12.9031H21.5566V11.9896H21.1205V11.7923H21.1192Z" fill="white"/>
<path fill-rule="evenodd" clip-rule="evenodd" d="M23.1917 12.8921C23.2719 12.8684 23.3402 12.8321 23.399 12.7823L23.3348 12.6275C23.296 12.6601 23.2438 12.6875 23.181 12.71C23.118 12.7325 23.0471 12.7436 22.9695 12.7436C22.8532 12.7436 22.7568 12.715 22.6805 12.6563C22.6043 12.5975 22.5628 12.5153 22.5534 12.4103H23.4686C23.478 12.3716 23.482 12.328 23.482 12.2768C23.482 12.2006 23.4672 12.1321 23.4378 12.0697C23.4104 12.0091 23.3704 11.9543 23.3201 11.9086C23.2692 11.8633 23.2091 11.8281 23.1435 11.8051C23.0748 11.7799 23.0017 11.7672 22.928 11.7676C22.829 11.7676 22.742 11.7838 22.6659 11.8138C22.5939 11.8424 22.5287 11.8844 22.4744 11.9374C22.4217 11.9901 22.3812 12.0526 22.3555 12.1208C22.3272 12.1935 22.3132 12.2705 22.314 12.3479C22.314 12.4354 22.3301 12.5152 22.3595 12.5864C22.3881 12.6555 22.4319 12.718 22.4879 12.7699C22.5428 12.8209 22.6096 12.8597 22.6886 12.8872C22.7732 12.9155 22.8625 12.9294 22.9522 12.9283C23.0335 12.9278 23.1142 12.9155 23.1917 12.8921ZM22.6565 12.0371C22.722 11.981 22.809 11.9536 22.9187 11.9536C23.0217 11.9536 23.1047 11.9798 23.1649 12.0323C23.2252 12.0847 23.2572 12.1571 23.2626 12.2494H22.5401C22.5503 12.1677 22.5917 12.0922 22.6565 12.0371Z" fill="white"/>
<path d="M23.7697 11.793H23.9624L24.4199 12.3435L24.8534 11.793H25.0407V12.9039H24.8294V12.0939L24.4172 12.6093H24.4091L23.9811 12.0937V12.9037H23.7697V11.793Z" fill="white"/>
<path fill-rule="evenodd" clip-rule="evenodd" d="M25.616 11.7969C25.5518 11.8127 25.4905 11.8375 25.4341 11.8704L25.4902 12.0279C25.5384 12.0054 25.5866 11.9866 25.6347 11.9704C25.6829 11.9541 25.7444 11.9466 25.8181 11.9466C25.8769 11.9466 25.9238 11.9554 25.9599 11.9728C25.996 11.989 26.0227 12.0141 26.0414 12.0441C26.0602 12.0741 26.0723 12.1114 26.079 12.1551C26.0856 12.1987 26.0883 12.2461 26.0883 12.2974C26.0451 12.269 25.9958 12.2498 25.9438 12.2412C25.8936 12.2318 25.8425 12.2267 25.7913 12.2262C25.7284 12.2262 25.6695 12.235 25.6133 12.2499C25.5571 12.2649 25.509 12.2874 25.4702 12.3174C25.4306 12.3473 25.3986 12.3853 25.3765 12.4284C25.353 12.4756 25.341 12.5273 25.3417 12.5794C25.3417 12.688 25.3752 12.7729 25.442 12.8329C25.509 12.8928 25.5972 12.9226 25.7069 12.9226C25.806 12.9226 25.885 12.9064 25.9451 12.874C26.0053 12.8415 26.0535 12.8041 26.0883 12.7617V12.9052H26.2863V12.2238C26.2863 12.0789 26.2529 11.9667 26.1847 11.8879C26.1178 11.8093 25.9987 11.7694 25.8301 11.7694C25.7551 11.7694 25.6842 11.7793 25.616 11.7969ZM25.9694 12.6969C25.9212 12.7293 25.8583 12.7441 25.7807 12.7441C25.7125 12.7441 25.6589 12.7279 25.6215 12.6967C25.584 12.6643 25.5652 12.6219 25.5652 12.5694C25.5652 12.5383 25.5719 12.5121 25.5867 12.4884C25.6015 12.4647 25.6215 12.4459 25.6443 12.4309C25.6691 12.4153 25.6968 12.4038 25.7258 12.3972C25.7567 12.3897 25.7874 12.3859 25.8195 12.3859C25.9239 12.3859 26.0135 12.4096 26.0871 12.4596V12.6006C26.0524 12.6373 26.0128 12.6697 25.9694 12.6969ZM28.1529 11.4024C28.1957 11.3838 28.2357 11.3526 28.2733 11.3064L28.1582 11.1504C28.1287 11.1879 28.0953 11.214 28.0578 11.2278C28.0181 11.2425 27.9768 11.2533 27.9348 11.2602L27.8947 11.2669C27.8599 11.2726 27.8225 11.2789 27.7823 11.2852C27.7178 11.2965 27.6549 11.3149 27.595 11.3401C27.4999 11.3788 27.4238 11.4312 27.3662 11.4973C27.3086 11.5635 27.2632 11.6383 27.2323 11.7208C27.2011 11.8044 27.18 11.8911 27.1695 11.9791C27.1587 12.0691 27.1535 12.1551 27.1535 12.2374C27.1535 12.3436 27.1681 12.4396 27.1975 12.5257C27.2271 12.612 27.2684 12.6843 27.3233 12.7429C27.3781 12.8029 27.4438 12.8479 27.5214 12.8803C27.599 12.9127 27.6859 12.9289 27.7836 12.9289C27.8732 12.9289 27.9562 12.9127 28.0311 12.8827C28.1033 12.8539 28.1688 12.812 28.2238 12.7593C28.2772 12.708 28.3202 12.6468 28.3496 12.5782C28.3803 12.5095 28.3951 12.4359 28.3951 12.3585C28.3951 12.2749 28.3817 12.1989 28.3563 12.1314C28.3328 12.067 28.2955 12.008 28.2466 11.958C28.1975 11.9088 28.1377 11.8704 28.0712 11.8455C27.998 11.8183 27.9198 11.8047 27.8411 11.8056C27.7902 11.8056 27.7408 11.8119 27.6926 11.8243C27.6458 11.8368 27.6008 11.8548 27.5587 11.878C27.518 11.9001 27.4806 11.9273 27.4478 11.959C27.4156 11.9904 27.3889 12.0253 27.3702 12.0652H27.3648C27.3689 12.0141 27.3756 11.9617 27.3875 11.908C27.3996 11.8543 27.4169 11.803 27.4398 11.7544C27.4625 11.7058 27.492 11.662 27.5281 11.6221C27.5668 11.5819 27.6142 11.5499 27.6672 11.5285C27.7254 11.5024 27.7871 11.4835 27.8505 11.4724L27.8925 11.4652C27.9343 11.458 27.9742 11.4511 28.0124 11.4436C28.0632 11.4337 28.11 11.421 28.1529 11.4024ZM27.409 12.4696C27.3883 12.4066 27.3783 12.3409 27.3795 12.2749C27.3885 12.2371 27.4049 12.2011 27.4277 12.1689C27.4505 12.1351 27.4799 12.1053 27.5147 12.0789C27.5933 12.0208 27.6904 11.9896 27.7902 11.9904C27.9147 11.9904 28.0084 12.0265 28.0739 12.0978C28.1396 12.1701 28.1717 12.2599 28.1717 12.3685C28.1717 12.4222 28.1609 12.471 28.1423 12.5158C28.1242 12.5601 28.0969 12.6004 28.0619 12.6345C28.027 12.6686 27.9852 12.6957 27.9389 12.7143C27.8907 12.7342 27.8384 12.7443 27.7796 12.7443C27.7208 12.7443 27.6672 12.733 27.6177 12.7105C27.5686 12.6885 27.5252 12.6565 27.4905 12.6169C27.4543 12.5728 27.4266 12.5229 27.409 12.4696ZM30.0167 11.7931H29.8052V12.904H30.0167V11.7931ZM28.7 11.7931H28.9115V12.1264H29.1069C29.1991 12.1264 29.274 12.1377 29.3342 12.1588C29.3945 12.1801 29.4427 12.2088 29.4788 12.2437C29.5149 12.2787 29.5403 12.3199 29.5551 12.366C29.5697 12.4122 29.5778 12.4596 29.5778 12.5095C29.5778 12.5595 29.5697 12.607 29.5524 12.6544C29.5363 12.7018 29.5082 12.7429 29.4707 12.7804C29.4333 12.8179 29.3824 12.8479 29.3182 12.8704C29.254 12.8928 29.1764 12.9052 29.0827 12.9052H28.6987V11.7931H28.7ZM28.9115 12.3123V12.7192H29.0654C29.1711 12.7192 29.246 12.7018 29.2888 12.6667C29.3317 12.6318 29.353 12.582 29.353 12.5158C29.353 12.4483 29.3303 12.3973 29.2875 12.3622C29.2433 12.3273 29.1697 12.3097 29.0681 12.3097H28.9115V12.3123Z" fill="white"/>
<path d="M31.4148 12.7433C31.3639 12.8045 31.297 12.8507 31.2167 12.8819C31.1343 12.9135 31.0462 12.9297 30.9572 12.9293C30.8688 12.9305 30.7808 12.9165 30.6976 12.8882C30.6228 12.8626 30.5545 12.8227 30.4969 12.7709C30.4401 12.7191 30.3954 12.6565 30.3658 12.5873C30.3339 12.5115 30.3181 12.4305 30.319 12.349C30.319 12.268 30.3336 12.193 30.3645 12.1219C30.3939 12.0506 30.4367 11.9896 30.4903 11.9383C30.5438 11.8859 30.6079 11.846 30.6802 11.8148C30.7565 11.7831 30.8391 11.7674 30.9224 11.7686C31.0173 11.7686 31.1057 11.7799 31.186 11.8022C31.2663 11.8247 31.3345 11.8622 31.3906 11.9147L31.293 12.0707C31.2458 12.0304 31.1902 11.9997 31.1297 11.9807C31.0723 11.9633 31.0122 11.9544 30.9518 11.9546C30.8984 11.9546 30.8475 11.9645 30.7979 11.9833C30.7492 12.0018 30.7048 12.0289 30.6669 12.0632C30.6284 12.0987 30.5979 12.1412 30.5772 12.188C30.5545 12.2366 30.5438 12.2903 30.5438 12.3502C30.5438 12.4114 30.5558 12.4663 30.5785 12.5137C30.6012 12.5624 30.6321 12.6037 30.6709 12.6385C30.7097 12.6736 30.7551 12.6997 30.8073 12.7172C30.8596 12.7346 30.9145 12.7447 30.9733 12.7447C31.0455 12.7447 31.1097 12.7309 31.1673 12.7046C31.2229 12.6793 31.2728 12.6442 31.3145 12.6011L31.4148 12.7433ZM31.5231 11.7923H32.6082V11.9896H32.1719V12.9031H31.9606V11.9896H31.5245V11.7923H31.5231Z" fill="white"/>
<path fill-rule="evenodd" clip-rule="evenodd" d="M33.0497 11.7927H32.8383V13.3977H33.0497V12.8523C33.0925 12.8786 33.1434 12.8973 33.2022 12.9098C33.261 12.9222 33.3226 12.9284 33.3855 12.9284C33.4792 12.9284 33.5634 12.9122 33.6398 12.8823C33.713 12.8528 33.7793 12.81 33.835 12.7563C33.8899 12.7025 33.9314 12.6401 33.9608 12.5664C33.9902 12.4929 34.005 12.4142 34.005 12.3306C34.005 12.2481 33.9916 12.1721 33.9662 12.1034C33.9422 12.0381 33.9049 11.9779 33.8565 11.9262C33.8089 11.8758 33.7499 11.8361 33.6838 11.8101C33.6116 11.7808 33.5336 11.7664 33.455 11.7677C33.3722 11.7677 33.2946 11.7827 33.221 11.8127C33.1473 11.8427 33.0898 11.8787 33.0497 11.9237V11.7927ZM33.197 11.9987C33.2572 11.9687 33.3227 11.9537 33.3936 11.9537C33.4552 11.9537 33.51 11.9624 33.5596 11.9811C33.6078 11.9999 33.6479 12.0261 33.6814 12.0611C33.7148 12.096 33.7402 12.1361 33.7563 12.1833C33.7736 12.2307 33.7817 12.282 33.7817 12.3381C33.7817 12.3981 33.7709 12.4517 33.7523 12.5016C33.7348 12.549 33.7069 12.5923 33.6706 12.629C33.6341 12.6651 33.5899 12.6936 33.5409 12.7125C33.4862 12.7341 33.4274 12.7447 33.3682 12.7437C33.3108 12.7437 33.2572 12.7376 33.2063 12.7251C33.1506 12.7108 33.0978 12.688 33.0499 12.6576V12.1071C33.0872 12.0648 33.1369 12.0287 33.197 11.9987ZM35.6266 11.7926H35.4151V12.9035H35.6266V11.7926ZM34.3087 11.7926H34.5201V12.1259H34.7154C34.8077 12.1259 34.8826 12.1371 34.9429 12.1583C35.0031 12.1796 35.0513 12.2082 35.0874 12.2432C35.1235 12.2781 35.1489 12.3194 35.1636 12.3654C35.1784 12.4116 35.1863 12.459 35.1863 12.509C35.1863 12.5589 35.1784 12.6065 35.161 12.6539C35.145 12.7013 35.1168 12.7424 35.0793 12.7799C35.0419 12.8174 34.9911 12.8474 34.9268 12.8699C34.8626 12.8922 34.785 12.9047 34.6914 12.9047H34.3074V11.7926H34.3087ZM34.5215 12.3117V12.7187H34.6755C34.781 12.7187 34.8561 12.7013 34.8988 12.6662C34.9416 12.6312 34.9631 12.5814 34.9631 12.5153C34.9631 12.4478 34.9403 12.3968 34.8976 12.3617C34.8534 12.3267 34.7798 12.3092 34.6782 12.3092H34.5215V12.3117Z" fill="white"/>
<path d="M36.6409 12.3285L37.0931 12.9039H36.8336L36.4843 12.4545L36.1297 12.9039H35.8836L36.3331 12.3384L35.9103 11.793H36.17L36.4924 12.2124L36.8201 11.793H37.0664L36.6409 12.3285ZM18.0675 14.2768H17.4186V15.2029H17.2072V14.0922H18.2788V15.2029H18.0675V14.2768ZM19.4789 14.2893H19.0615L19.048 14.4765C19.0334 14.635 19.0133 14.7624 18.9852 14.8596C18.9571 14.9571 18.9222 15.0319 18.8822 15.0843C18.8421 15.1368 18.7952 15.1729 18.7416 15.1905C18.6863 15.2094 18.6279 15.2187 18.5691 15.2179L18.5531 15.0256C18.5758 15.0268 18.6025 15.0219 18.6319 15.0094C18.6615 14.997 18.6909 14.9695 18.7189 14.9284C18.747 14.8858 18.7725 14.826 18.7952 14.7486C18.8179 14.67 18.8327 14.5677 18.8407 14.439L18.8621 14.0932H19.6904V15.2041H19.4789V14.2893Z" fill="white"/>
<path fill-rule="evenodd" clip-rule="evenodd" d="M20.2603 14.0948C20.1919 14.1122 20.1304 14.1371 20.0782 14.1683L20.1345 14.3257C20.1827 14.3032 20.2308 14.2844 20.2789 14.2682C20.327 14.252 20.3887 14.2445 20.4622 14.2445C20.5212 14.2445 20.5679 14.2532 20.604 14.2706C20.6403 14.287 20.667 14.3119 20.6857 14.3419C20.7043 14.3719 20.7164 14.4094 20.7231 14.4529C20.7298 14.4967 20.7325 14.5441 20.7325 14.5952C20.6892 14.5668 20.6399 14.5477 20.5879 14.5391C20.5377 14.5297 20.4867 14.5247 20.4355 14.5241C20.3727 14.5241 20.3137 14.5328 20.2576 14.5478C20.2013 14.5628 20.1531 14.5853 20.1143 14.6153C20.0747 14.6453 20.0427 14.6832 20.0207 14.7263C19.9971 14.7736 19.9853 14.8252 19.986 14.8774C19.986 14.9858 20.0194 15.0709 20.0863 15.1307C20.1531 15.1906 20.2415 15.2206 20.3512 15.2206C20.4503 15.2206 20.5291 15.2044 20.5894 15.1718C20.6495 15.1394 20.6977 15.1019 20.7325 15.0595V15.203H20.9306V14.5216C20.9306 14.3768 20.897 14.2645 20.8288 14.1859C20.7619 14.1071 20.6428 14.0674 20.4743 14.0674C20.402 14.0674 20.33 14.0768 20.2603 14.0948ZM20.6148 14.9945C20.5668 15.0271 20.5038 15.0421 20.4263 15.0421C20.3566 15.0421 20.3045 15.0259 20.2671 14.9945C20.2296 14.9621 20.2108 14.9197 20.2108 14.8673C20.2108 14.8361 20.2175 14.8099 20.2323 14.7862C20.2469 14.7625 20.2671 14.7437 20.2898 14.7287C20.3126 14.7137 20.3406 14.7025 20.3714 14.695C20.402 14.6875 20.4335 14.6838 20.465 14.6839C20.5693 14.6839 20.659 14.7076 20.7326 14.7574V14.8984C20.6979 14.9351 20.6583 14.9674 20.6148 14.9945Z" fill="white"/>
<path d="M21.1378 14.0918H22.223V14.2889H21.7867V15.2025H21.5754V14.289H21.1392V14.0918H21.1378Z" fill="white"/>
<path fill-rule="evenodd" clip-rule="evenodd" d="M23.2105 15.1918C23.2908 15.1681 23.359 15.1318 23.4178 15.082L23.3536 14.9272C23.3148 14.9598 23.2626 14.9872 23.1997 15.0097C23.1369 15.0322 23.066 15.0433 22.9884 15.0433C22.872 15.0433 22.7756 15.0147 22.6993 14.956C22.623 14.8974 22.5817 14.815 22.5723 14.71H23.4875C23.4967 14.6715 23.5008 14.6277 23.5008 14.5765C23.5008 14.5005 23.486 14.4318 23.4566 14.3694C23.4292 14.3088 23.3891 14.254 23.3388 14.2084C23.2879 14.163 23.2279 14.1278 23.1623 14.1048C23.0936 14.0796 23.0205 14.0669 22.9469 14.0673C22.8478 14.0673 22.7608 14.0835 22.6847 14.1135C22.6126 14.142 22.5475 14.184 22.4933 14.2371C22.4405 14.2898 22.4 14.3523 22.3742 14.4205C22.346 14.4932 22.3319 14.5702 22.3327 14.6476C22.3327 14.7351 22.3487 14.8149 22.3781 14.8861C22.4077 14.9572 22.4518 15.0184 22.5066 15.0696C22.5615 15.1207 22.6284 15.1594 22.7074 15.1869C22.792 15.2152 22.8812 15.2292 22.9709 15.2281C23.0499 15.2281 23.1302 15.2155 23.2105 15.1918ZM22.674 14.3356C22.7395 14.2795 22.8265 14.2521 22.9362 14.2521C23.0407 14.2521 23.1222 14.2795 23.1825 14.3307C23.2426 14.3832 23.2747 14.4555 23.2801 14.5479H22.5577C22.5679 14.4661 22.6092 14.3907 22.674 14.3356ZM23.6038 14.0923H23.8714L24.2794 14.6278L23.8433 15.2031H23.5838L24.0412 14.6277L23.6038 14.0923ZM24.3316 14.0923H24.543V15.2031H24.3316V14.0923ZM25.2989 15.2031L24.8334 14.6277L25.2682 14.0922H25.0059L24.5952 14.6277L25.0367 15.2031H25.2989ZM26.265 15.1918C26.3452 15.1681 26.4135 15.1318 26.4723 15.082L26.4081 14.9272C26.3693 14.9598 26.3171 14.9872 26.2543 15.0097C26.1913 15.0322 26.1204 15.0433 26.0428 15.0433C25.9265 15.0433 25.8301 15.0147 25.7538 14.956C25.6776 14.8974 25.6361 14.815 25.6267 14.71H26.5419C26.5513 14.6715 26.5553 14.6277 26.5553 14.5765C26.5553 14.5005 26.5407 14.4318 26.5111 14.3694C26.4837 14.3088 26.4437 14.2541 26.3934 14.2084C26.3425 14.163 26.2824 14.1278 26.2168 14.1048C26.1481 14.0796 26.075 14.0669 26.0013 14.0673C25.9024 14.0673 25.8155 14.0835 25.7392 14.1135C25.6672 14.142 25.6021 14.1841 25.5479 14.2371C25.4951 14.2897 25.4545 14.3522 25.4288 14.4205C25.4005 14.4932 25.3865 14.5702 25.3873 14.6476C25.3873 14.7351 25.4034 14.8149 25.4328 14.8861C25.4622 14.9572 25.5064 15.0184 25.5612 15.0696C25.6161 15.1207 25.6829 15.1594 25.7619 15.1869C25.8465 15.2152 25.9357 15.2292 26.0255 15.2281C26.1068 15.2275 26.1876 15.2153 26.265 15.1918ZM25.7285 14.3356C25.7942 14.2795 25.8811 14.2521 25.9908 14.2521C26.0939 14.2521 26.1767 14.2795 26.237 14.3307C26.2972 14.3832 26.3293 14.4555 26.3346 14.5479H25.6121C25.6223 14.4661 25.6637 14.3907 25.7285 14.3356ZM27.4131 13.7191C27.2886 13.7191 27.2204 13.6542 27.2097 13.5244H27.0103C27.0103 13.5742 27.0197 13.6192 27.037 13.6617C27.0545 13.7041 27.08 13.7403 27.1134 13.7703C27.1467 13.8003 27.1897 13.824 27.2391 13.8426C27.2886 13.8613 27.3461 13.87 27.4116 13.87C27.4719 13.87 27.5255 13.8613 27.5736 13.8426C27.6218 13.8252 27.6619 13.8003 27.6967 13.7703C27.7301 13.7403 27.757 13.7041 27.7756 13.6617C27.7943 13.6192 27.8037 13.5742 27.8037 13.5244H27.6058C27.5964 13.6542 27.5307 13.7191 27.4131 13.7191ZM26.8416 14.0922V15.2031H27.0531L27.7408 14.3755V15.2031H27.9522V14.0922H27.7408L27.0531 14.9197V14.0922H26.8416Z" fill="white"/>
</g>
<defs>
<clipPath id="clip0_722_7210">
<rect width="38" height="18" fill="white" transform="translate(0 0.243164)"/>
</clipPath>
</defs>
</svg>
