<svg width="93" height="77" viewBox="0 0 93 77" fill="none" xmlns="http://www.w3.org/2000/svg">
<g clip-path="url(#clip0_709_2817)">
<mask id="mask0_709_2817" style="mask-type:luminance" maskUnits="userSpaceOnUse" x="-27" y="-35" width="147" height="147">
<path d="M120 -35H-27V112H120V-35Z" fill="white"/>
</mask>
<g mask="url(#mask0_709_2817)">
<path d="M11.5214 62.8767H9.85575V70.7555H6.33936V51.0851H11.3363C12.7464 51.0851 13.6982 51.4022 14.1917 52.037C14.7029 52.6711 14.9585 53.6494 14.9585 54.9713V58.911C14.9585 61.5548 13.8128 62.8767 11.5214 62.8767ZM9.85575 54.1254V59.6776H10.5167C10.8868 59.6776 11.1248 59.5891 11.2306 59.4129C11.3539 59.2191 11.4156 58.9369 11.4156 58.5669V55.2884C11.4156 54.8829 11.3539 54.5923 11.2306 54.416C11.1248 54.2222 10.8868 54.1254 10.5167 54.1254H9.85575ZM20.8835 70.7555L20.5133 67.4505H18.3982L18.0809 70.7555H14.9612L17.4464 51.0851H21.6237L24.294 70.7555H20.8835ZM19.4293 57.3244L18.7419 64.0662H20.1696L19.4293 57.3244ZM28.832 54.1254V59.0958H29.5196C29.8896 59.0958 30.1447 59.0164 30.2861 58.8581C30.4269 58.6818 30.4979 58.3647 30.4979 57.9062V55.236C30.4979 54.795 30.4359 54.5044 30.3126 54.363C30.2067 54.2048 29.9775 54.1254 29.6249 54.1254H28.832ZM28.832 62.3478V70.7555H25.3154V51.0851H30.8679C33.0177 51.0851 34.0935 52.1778 34.0935 54.363V57.5097C34.0935 58.8142 33.573 59.695 32.5333 60.1535C32.9034 60.2949 33.2475 60.559 33.5646 60.9465C33.8817 61.3165 34.0405 61.8279 34.0405 62.4801V69.1689C34.0405 69.7862 34.1374 70.2706 34.3311 70.6232V70.7555H30.815C30.6032 70.5083 30.4979 70.0059 30.4979 69.2483V63.5114C30.4979 63.0529 30.4269 62.7443 30.2861 62.586C30.1622 62.4272 29.9245 62.3478 29.5725 62.3478H28.832ZM35.1315 51.0851H43.671V54.5483H41.1596V70.7555H37.6429V54.5483H35.1315V51.0851ZM48.8492 50.8469H49.5634C50.9207 50.8469 51.89 51.155 52.4713 51.7722C53.0531 52.3895 53.3437 53.3678 53.3437 54.7072V57.3509H49.9599V54.8919C49.9599 54.2048 49.7042 53.8612 49.1928 53.8612C48.6819 53.8612 48.4262 54.2138 48.4262 54.9184V55.3678C48.4262 56.2493 48.7873 57.0952 49.5104 57.9062L51.5194 60.1535C52.366 61.1053 52.9297 61.9603 53.2119 62.7178C53.5115 63.4585 53.6614 64.287 53.6614 65.2033V66.1287C53.6614 67.6623 53.3003 68.8608 52.5772 69.7243C51.8726 70.5702 50.8058 70.9932 49.3781 70.9932H48.691C46.0112 70.9932 44.6718 69.6358 44.6718 66.9217V63.379H48.1356V66.5252C48.1356 67.3182 48.4352 67.7147 49.0345 67.7147C49.6163 67.7147 49.9069 67.2388 49.9069 66.2875V65.9169C49.9069 65.1768 49.8365 64.6215 49.6952 64.2515C49.5724 63.864 49.2632 63.3965 48.7698 62.8502L46.7343 60.6029C46.0292 59.8454 45.5352 59.0783 45.2536 58.3028C44.9895 57.5272 44.8571 56.6283 44.8571 55.6061V54.7601C44.8571 53.5081 45.2097 52.5478 45.9148 51.8781C46.6194 51.1904 47.5977 50.8469 48.8492 50.8469ZM63.5999 66.4193V62.0836H67.0902V66.5252C67.0902 67.8471 66.7635 68.9403 66.1119 69.8037C65.4771 70.6496 64.4464 71.0726 63.0187 71.0726H62.3045C60.7534 71.0726 59.6692 70.6496 59.0525 69.8037C58.4532 68.9577 58.1536 67.8296 58.1536 66.4193V55.3149C58.1536 53.993 58.4797 52.9184 59.1319 52.0893C59.8016 51.2608 60.8587 50.8469 62.3045 50.8469H63.0187C63.8291 50.8469 64.5072 50.9618 65.0541 51.1904C65.6179 51.4197 66.0409 51.7548 66.3231 52.1952C66.6052 52.6182 66.799 53.0676 66.9049 53.5436C67.0282 54.0195 67.0902 54.5658 67.0902 55.1831V58.4875H63.5999V55.3149C63.5999 54.5574 63.3003 54.1783 62.701 54.1783C62.1198 54.1783 61.8286 54.5574 61.8286 55.3149V66.4193C61.8286 67.2123 62.1282 67.6094 62.7275 67.6094C63.3093 67.6094 63.5999 67.2123 63.5999 66.4193ZM78.0014 51.0851H86.5409V54.5483H84.0295V70.7555H80.5128V54.5483H78.0014V51.0851Z" fill="#FEFEFE"/>
<path d="M73.913 70.7555L73.5429 67.4505H71.4275L71.1104 70.7555H67.9907L70.4756 51.0851H74.653L77.3233 70.7555H73.913ZM72.4587 57.3244L71.7716 64.0662H73.1988L72.4587 57.3244Z" fill="#FFC400"/>
<path fill-rule="evenodd" clip-rule="evenodd" d="M85.4267 40.3586L84.3075 41.0345L52.7459 39.6828L52.3663 38.5563H52.7459L52.5218 36.5287L52.2982 36.0782L52.7459 34.9517H53.1937L54.0886 34.2759L54.9841 34.0506V33.6H56.3274V34.0506H58.5657V33.6H59.9089V34.2759H61.9236V31.7977H64.0649V31.3471H63.0427V30.6713H61.6994V29.7701L61.028 29.3195V22.1103L59.0134 19.1816L46.2543 14L39.3154 25.9402L41.33 28.1931L44.6874 29.9954L46.2543 29.3195L47.3734 29.9954L39.0912 33.1494L34.3906 31.1218L36.853 25.7149H36.1811L35.5097 25.2644L35.2861 24.5885L35.5097 23.9126L35.9575 23.4621H36.6289L38.4199 18.0552V16.9287L40.6581 10.3954H41.1059V9.04368L42.0014 8.14253L44.2396 6.7908L47.1498 6.11494V7.69196L52.2982 10.3954L52.9695 9.94483L59.9089 14.4506L62.1472 15.1264L66.4 19.1816H71.1006L71.3248 19.4069L72.4439 23.0115L75.0071 21.2092H83.1884V23.0115H85.2031L85.4267 29.3195L84.9795 30.446H69.5338V31.1218H69.0866V31.7977H77.3687V34.2759H79.3833V33.6H80.9502V34.0506H82.9648V33.6H84.3075L84.5317 34.2759L85.4267 34.5012V34.2759L86.5463 35.177L86.0986 35.6276L86.3222 36.754H86.7699V38.1058H86.0986V39.0069L86.5463 39.4575L85.8744 40.3586H85.4267ZM65.9309 28.6437H61.9883V23.3027L62.4524 22.4483H65.9309V28.6437ZM69.451 26.1306L66.4941 28.0805V22.4483H69.9438L70.4366 24.1813L69.451 24.3981V26.1306ZM52.5077 11.0054L52.9768 11.6648L52.5077 11.7471L47.3446 10.346V8.36782L52.5077 11.0054ZM55.2297 14L47.3446 11.9204V10.6207L53.9157 12.7003L55.2297 14Z" fill="#FFC400"/>
<path fill-rule="evenodd" clip-rule="evenodd" d="M86.4886 44.4138H6.22998L18.5879 20.1954L25.8702 31.6439L30.2839 28.3418L36.6832 37.1483L43.083 35.6073L48.379 40.6712L70.447 41.3313L84.0611 41.992C85.2704 42.26 86.2194 43.2046 86.4886 44.4138ZM19.7472 23.5747L25.9426 33.1494L22.7302 30.9732L19.7472 23.5747ZM34.9541 37.092L30.4484 30.3333L32.0254 34.6138L34.9541 37.092Z" fill="#FEFEFE"/>
</g>
</g>
<defs>
<clipPath id="clip0_709_2817">
<rect width="93" height="77" fill="white"/>
</clipPath>
</defs>
</svg>
