<svg width="41" height="41" viewBox="0 0 41 41" fill="none" xmlns="http://www.w3.org/2000/svg">
<rect x="0.666992" y="0.5" width="40" height="40" rx="20" fill="#39B6E5"/>
<g clip-path="url(#clip0_709_772)">
<path d="M16.0842 23.681L15.6872 29.265C16.2552 29.265 16.5012 29.021 16.7962 28.728L19.4592 26.183L24.9772 30.224C25.9892 30.788 26.7022 30.491 26.9752 29.293L30.5972 12.321L30.5982 12.32C30.9192 10.824 30.0572 10.239 29.0712 10.606L7.78117 18.757C6.32817 19.321 6.35017 20.131 7.53417 20.498L12.9772 22.191L25.6202 14.28C26.2152 13.886 26.7562 14.104 26.3112 14.498L16.0842 23.681Z" fill="#FEFEFE"/>
</g>
<defs>
<clipPath id="clip0_709_772">
<rect width="24" height="24" fill="white" transform="translate(6.66699 8.5)"/>
</clipPath>
</defs>
</svg>
