<svg width="48" height="19" viewBox="0 0 48 19" fill="none" xmlns="http://www.w3.org/2000/svg">
<g clip-path="url(#clip0_722_7184)">
<path d="M45.8869 0.243164H2.11307C0.946052 0.243164 0 1.14695 0 2.26183V16.2245C0 17.3394 0.946052 18.2432 2.11307 18.2432H45.8869C47.0539 18.2432 48 17.3394 48 16.2245V2.26183C48 1.14695 47.0539 0.243164 45.8869 0.243164Z" fill="#FFDD2D"/>
<path d="M23.4905 8.92181C23.2529 8.8345 22.9421 8.80832 22.604 8.80832H20.7211V8.2495H23.9566V7.28906H19.3959V11.4452H22.4851C22.9147 11.4452 23.2345 11.4103 23.4722 11.3229C23.9749 11.1396 24.3131 10.6943 24.3131 10.1093C24.3131 9.51559 23.9932 9.10519 23.4905 8.92181ZM22.8324 10.3625C22.7593 10.3887 22.6588 10.3974 22.5308 10.3974H20.7211V9.73384H22.5308C22.6771 9.73384 22.7958 9.74263 22.8873 9.78624C22.9969 9.83864 23.0518 9.9347 23.0518 10.0569C23.0518 10.1791 22.9878 10.3101 22.8324 10.3625Z" fill="#333333"/>
<path d="M28.0289 7.28906H26.0913L24.3091 11.4452H25.808L26.0548 10.8427H28.0655L28.3214 11.4452H29.8112L28.0289 7.28906ZM26.3838 9.92591L27.0145 8.2495H27.115L27.7456 9.92591H26.3838Z" fill="#333333"/>
<path d="M31.517 9.89979V11.4452H30.1918V7.28906H31.517V8.80833H33.6466V7.28906H34.9718V11.4452H33.6466V9.89979H31.517Z" fill="#333333"/>
<path d="M37.0695 9.87359V11.4452H35.7443V7.28906H37.0695V8.85199H37.4351L39.0346 7.28906H40.698L38.5776 9.27982L40.7803 11.4452H39.0163L37.4351 9.87359H37.0695Z" fill="#333333"/>
<path d="M6.34436 4.61719H16.9098V9.69344C16.9098 10.9948 16.1831 12.1973 15.0035 12.848L11.6271 14.7106L8.25067 12.848C7.07103 12.1973 6.34436 10.9948 6.34436 9.69344V4.61719Z" fill="white"/>
<path fill-rule="evenodd" clip-rule="evenodd" d="M9.24402 7.28906V8.86788C9.47001 8.62409 9.88091 8.45908 10.3507 8.45908H10.8613V10.2944C10.8613 10.7827 10.7224 11.2101 10.5163 11.4452H12.7371C12.5315 11.2099 12.3929 10.783 12.3929 10.2954V8.45908H12.9035C13.3733 8.45908 13.7842 8.62409 14.0102 8.86788V7.28906H9.24402Z" fill="#333333"/>
</g>
<defs>
<clipPath id="clip0_722_7184">
<rect width="48" height="18" fill="white" transform="translate(0 0.243164)"/>
</clipPath>
</defs>
</svg>
