<svg width="63" height="19" viewBox="0 0 63 19" fill="none" xmlns="http://www.w3.org/2000/svg">
<path d="M4.88245 2.19277H10.0799C10.5524 2.19277 11.9699 2.04277 12.5999 4.14277C13.0724 5.49277 13.7024 7.59277 14.6474 10.7428H14.9624C15.9074 7.44277 16.6949 5.19277 17.0099 4.14277C17.6399 2.04277 19.215 2.19277 19.845 2.19277H24.7275V16.5928H19.6875V8.04277H19.3724L16.6949 16.5928H12.9149L10.2374 8.04277H9.76495V16.5928H4.88245M26.775 2.19277H31.815V10.7428H32.2875L35.595 3.69277C36.225 2.34277 37.6425 2.19277 37.6425 2.19277H42.3675V16.5928H37.3275V8.04277H37.0125L33.705 15.0928C33.075 16.4428 31.5 16.5928 31.5 16.5928H26.775M49.14 12.2428V16.5928H44.415V9.09277H59.85C59.22 10.8928 57.015 12.2428 54.495 12.2428" fill="#0F754E"/>
<path d="M60.165 8.19336C60.795 5.49336 58.905 2.19336 54.81 2.19336H44.1C44.415 5.34336 47.25 8.19336 50.2425 8.19336" fill="url(#paint0_linear_722_7192)"/>
<defs>
<linearGradient id="paint0_linear_722_7192" x1="58.275" y1="0.243359" x2="45.675" y2="0.243359" gradientUnits="userSpaceOnUse">
<stop stop-color="#1F5CD7"/>
<stop offset="1" stop-color="#02AEFF"/>
</linearGradient>
</defs>
</svg>
